<svg xmlns="http://www.w3.org/2000/svg" viewBox="0 0 128 128" role="img" aria-label="Explosion">
  <path fill="#7f1d1d" d="m64 4 12 34 31-18-18 31 35 13-35 13 18 31-31-18-12 34-12-34-31 18 18-31L4 64l35-13-18-31 31 18L64 4Z"/>
  <path fill="#dc2626" d="m64 22 8 28 25-13-13 25 27 9-28 8 14 25-25-13-8 27-8-27-25 13 14-25-28-8 27-9-13-25 25 13 8-28Z"/>
  <path fill="#f59e0b" d="m64 39 6 20 18-9-9 18 20 6-21 6 10 18-18-9-6 20-6-20-18 9 10-18-21-6 20-6-9-18 18 9 6-20Z"/>
  <circle cx="64" cy="74" r="14" fill="#fef3c7"/>
</svg>
